# xmcd
#
# Track frame offsets:
#	150
#	18560
#	40859
#	62232
#	80206
#	101655
#	123942
#	141893
#	161031
#	178669
#	197874
#	219070
#	238405
#	253777
#	271124
#	290294
#	310237
#	331166
#
# Disc length: 4649
#
# Revision: 3
# Processed by: cddbd v1.5.1PL0 Copyright (c) Steve Scherf et al.
# Submitted via: EasyCDDAExtractor 5.0.4.1
# Normalized: r2:DSETVAR1
#
DISCID=0c122712
DTITLE=Various Artist - Rhythm Nation Volume 3
DYEAR=2001
DGENRE=Blues
TTITLE0=R. Kelly - Feelin' On Yo Booty
TTITLE1=Joe - I Believe In You
TTITLE2=Case - Missing You
TTITLE3=Brian McKhight - Love Of My Life
TTITLE4=Musiq Soulchild - Love
TTITLE5=India Arie - Brown Skin
TTITLE6=Lucy Pearl - Without You
TTITLE7=Janet Jackson - Someone To Call My Lover
TTITLE8=Aaliyah - We Need A Resolution
TTITLE9=Syleena Johnson - Hit On Me
TTITLE10=Pru - Smooth Operator
TTITLE11=Dave Hollister - Take Care of Home
TTITLE12=Jessie Powell - Something In The Past
TTITLE13=Craig David - Fill Me In
TTITLE14=Liberty City - Who's She Lovin' Now
TTITLE15=Marc Dorsey - Crave
TTITLE16=Charlie Wilson - Without You
TTITLE17=Nivea - Don't Mess With The Radio
EXTD=
EXTT0=
EXTT1=
EXTT2=
EXTT3=
EXTT4=
EXTT5=
EXTT6=
EXTT7=
EXTT8=
EXTT9=
EXTT10=
EXTT11=
EXTT12=
EXTT13=
EXTT14=
EXTT15=
EXTT16=
EXTT17=
PLAYORDER=
